<?xml version="1.0" encoding="UTF-8" standalone="no"?>
<!DOCTYPE svg PUBLIC "-//W3C//DTD SVG 1.1//EN" "http://www.w3.org/Graphics/SVG/1.1/DTD/svg11.dtd">
<svg width="100%" height="100%" viewBox="0 0 490 375" version="1.1" xmlns="http://www.w3.org/2000/svg" xmlns:xlink="http://www.w3.org/1999/xlink" xml:space="preserve" xmlns:serif="http://www.serif.com/" style="fill-rule:evenodd;clip-rule:evenodd;stroke-linejoin:round;stroke-miterlimit:2;">
    <g transform="matrix(1.26513,0,0,1.26513,-64.958,-338.126)">
        <g transform="matrix(1,0,0,1,-139.237,138.288)">
            <rect x="241.375" y="193" width="228.904" height="229.635" style="fill:rgb(242,242,242);fill-rule:nonzero;"/>
        </g>
        <g transform="matrix(1,0,0,1,-139.237,138.288)">
            <path d="M470.279,156.878L470.279,193L241.375,193L241.375,156.878C241.375,149.703 247.193,143.885 254.368,143.885L457.286,143.885C464.462,143.885 470.279,149.703 470.279,156.878Z" style="fill:rgb(92,80,162);fill-rule:nonzero;"/>
        </g>
        <g transform="matrix(1,0,0,1,-139.237,138.288)">
            <path d="M424.035,166.314C424.035,172.261 428.855,177.082 434.801,177.082C440.749,177.082 445.569,172.261 445.569,166.314C445.569,160.368 440.749,155.547 434.801,155.547C428.855,155.547 424.035,160.368 424.035,166.314Z" style="fill:rgb(60,69,130);fill-rule:nonzero;"/>
        </g>
        <g transform="matrix(1,0,0,1,-139.237,138.288)">
            <path d="M434.801,170.358C438.211,170.358 440.973,167.595 440.973,164.187L440.973,136.31C440.973,132.902 438.211,130.139 434.801,130.139C431.393,130.139 428.631,132.902 428.631,136.31L428.631,164.187C428.631,167.595 431.393,170.358 434.801,170.358Z" style="fill:rgb(244,188,60);fill-rule:nonzero;"/>
        </g>
        <g transform="matrix(1,0,0,1,-139.237,138.288)">
            <path d="M348.036,166.314C348.036,172.261 352.857,177.082 358.803,177.082C364.75,177.082 369.571,172.261 369.571,166.314C369.571,160.368 364.75,155.547 358.803,155.547C352.857,155.547 348.036,160.368 348.036,166.314Z" style="fill:rgb(60,69,130);fill-rule:nonzero;"/>
        </g>
        <g transform="matrix(1,0,0,1,-139.237,138.288)">
            <path d="M358.803,170.358C362.212,170.358 364.975,167.595 364.975,164.187L364.975,136.31C364.975,132.902 362.212,130.139 358.803,130.139C355.395,130.139 352.632,132.902 352.632,136.31L352.632,164.187C352.632,167.595 355.395,170.358 358.803,170.358Z" style="fill:rgb(244,188,60);fill-rule:nonzero;"/>
        </g>
        <g transform="matrix(1,0,0,1,-139.237,138.288)">
            <path d="M272.037,166.314C272.037,172.261 276.858,177.082 282.805,177.082C288.752,177.082 293.572,172.261 293.572,166.314C293.572,160.368 288.752,155.547 282.805,155.547C276.858,155.547 272.037,160.368 272.037,166.314Z" style="fill:rgb(60,69,130);fill-rule:nonzero;"/>
        </g>
        <g transform="matrix(1,0,0,1,-139.237,138.288)">
            <path d="M282.805,170.358C286.213,170.358 288.976,167.595 288.976,164.187L288.976,136.31C288.976,132.902 286.213,130.139 282.805,130.139C279.397,130.139 276.634,132.902 276.634,136.31L276.634,164.187C276.634,167.595 279.397,170.358 282.805,170.358Z" style="fill:rgb(244,188,60);fill-rule:nonzero;"/>
        </g>
        <g transform="matrix(1,0,0,1,-139.237,138.288)">
            <path d="M392.929,273.427L392.929,274.533L437.559,274.533L437.559,228.797L391.823,228.797L391.823,274.533L392.929,274.533L392.929,273.427L394.036,273.427L394.036,231.01L435.346,231.01L435.346,272.32L392.929,272.32L392.929,273.427L394.036,273.427L392.929,273.427Z" style="fill:rgb(233,212,210);fill-rule:nonzero;"/>
        </g>
        <g transform="matrix(1,0,0,1,-139.237,138.288)">
            <path d="M335.023,273.427L335.023,274.533L379.653,274.533L379.653,228.797L333.917,228.797L333.917,274.533L335.023,274.533L335.023,273.427L336.13,273.427L336.13,231.01L377.44,231.01L377.44,272.32L335.023,272.32L335.023,273.427L336.13,273.427L335.023,273.427Z" style="fill:rgb(233,212,210);fill-rule:nonzero;"/>
        </g>
        <g transform="matrix(1,0,0,1,-139.237,138.288)">
            <path d="M277.117,273.427L277.117,274.533L321.747,274.533L321.747,228.797L276.011,228.797L276.011,274.533L277.117,274.533L277.117,273.427L278.224,273.427L278.224,231.01L319.534,231.01L319.534,272.32L277.117,272.32L277.117,273.427L278.224,273.427L277.117,273.427Z" style="fill:rgb(233,212,210);fill-rule:nonzero;"/>
        </g>
        <g transform="matrix(1,0,0,1,-139.237,138.288)">
            <path d="M392.929,328.674L392.929,329.78L437.559,329.78L437.559,284.044L391.823,284.044L391.823,329.78L392.929,329.78L392.929,328.674L394.036,328.674L394.036,286.257L435.346,286.257L435.346,327.567L392.929,327.567L392.929,328.674L394.036,328.674L392.929,328.674Z" style="fill:rgb(233,212,210);fill-rule:nonzero;"/>
        </g>
        <g transform="matrix(1,0,0,1,-139.237,138.288)">
            <path d="M335.023,328.674L335.023,329.78L379.653,329.78L379.653,284.044L333.917,284.044L333.917,329.78L335.023,329.78L335.023,328.674L336.13,328.674L336.13,286.257L377.44,286.257L377.44,327.567L335.023,327.567L335.023,328.674L336.13,328.674L335.023,328.674Z" style="fill:rgb(233,212,210);fill-rule:nonzero;"/>
        </g>
        <g transform="matrix(1,0,0,1,-139.237,138.288)">
            <rect x="277.117" y="285.15" width="43.523" height="43.524" style="fill:rgb(243,126,148);fill-rule:nonzero;"/>
        </g>
        <g transform="matrix(1,0,0,1,-139.237,138.288)">
            <path d="M292.121,301.396L304.188,313.833L305.636,312.428L293.569,299.991" style="fill:white;fill-rule:nonzero;"/>
        </g>
        <g transform="matrix(1,0,0,1,-139.237,138.288)">
            <path d="M304.188,299.991L292.121,312.428L293.569,313.833L305.636,301.396" style="fill:white;fill-rule:nonzero;"/>
        </g>
        <g transform="matrix(1,0,0,1,-139.237,138.288)">
            <path d="M392.929,383.921L392.929,385.027L437.559,385.027L437.559,339.291L391.823,339.291L391.823,385.027L392.929,385.027L392.929,383.921L394.036,383.921L394.036,341.504L435.346,341.504L435.346,382.814L392.929,382.814L392.929,383.921L394.036,383.921L392.929,383.921Z" style="fill:rgb(233,212,210);fill-rule:nonzero;"/>
        </g>
        <g transform="matrix(1,0,0,1,-139.237,138.288)">
            <path d="M335.023,383.921L335.023,385.027L379.653,385.027L379.653,339.291L333.917,339.291L333.917,385.027L335.023,385.027L335.023,383.921L336.13,383.921L336.13,341.504L377.44,341.504L377.44,382.814L335.023,382.814L335.023,383.921L336.13,383.921L335.023,383.921Z" style="fill:rgb(233,212,210);fill-rule:nonzero;"/>
        </g>
        <g transform="matrix(1,0,0,1,-139.237,138.288)">
            <path d="M277.117,383.921L277.117,385.027L321.747,385.027L321.747,339.291L276.011,339.291L276.011,385.027L277.117,385.027L277.117,383.921L278.224,383.921L278.224,341.504L319.534,341.504L319.534,382.814L277.117,382.814L277.117,383.921L278.224,383.921L277.117,383.921Z" style="fill:rgb(233,212,210);fill-rule:nonzero;"/>
        </g>
        <g transform="matrix(1,0,0,1,-139.237,138.288)">
            <rect x="445.171" y="271.32" width="21.18" height="13.949" style="fill:rgb(249,157,46);fill-rule:nonzero;"/>
        </g>
        <g transform="matrix(1,0,0,1,-139.237,138.288)">
            <path d="M469.613,274.938L441.908,274.938C438.754,274.938 436.196,272.38 436.196,269.226C436.196,266.07 438.754,263.513 441.908,263.513L469.613,263.513C472.768,263.513 475.326,266.07 475.326,269.226C475.326,272.38 472.768,274.938 469.613,274.938Z" style="fill:rgb(244,188,60);fill-rule:nonzero;"/>
        </g>
        <g transform="matrix(1,0,0,1,-139.237,138.288)">
            <path d="M412.827,300.906L400.885,312.848L392.463,304.425L404.404,292.483L412.827,300.906Z" style="fill:rgb(249,157,46);fill-rule:nonzero;"/>
        </g>
        <g transform="matrix(1,0,0,1,-139.237,138.288)">
            <path d="M408.17,291.989L391.488,308.672C389.806,310.353 387.081,310.353 385.399,308.672C383.718,306.99 383.718,304.265 385.399,302.583L402.082,285.901C403.762,284.22 406.489,284.22 408.17,285.901C409.851,287.582 409.851,290.309 408.17,291.989Z" style="fill:rgb(244,188,60);fill-rule:nonzero;"/>
        </g>
        <g transform="matrix(1,0,0,1,-139.237,138.288)">
            <path d="M527.1,350.848C527.1,390.385 495.049,422.437 455.511,422.437C415.973,422.437 383.922,390.385 383.922,350.848C383.922,311.31 415.973,279.259 455.511,279.259C495.049,279.259 527.1,311.31 527.1,350.848Z" style="fill:rgb(240,111,135);fill-rule:nonzero;"/>
        </g>
        <g transform="matrix(1,0,0,1,-139.237,138.288)">
            <path d="M523.249,350.848C523.249,388.258 492.922,418.585 455.511,418.585C418.1,418.585 387.773,388.258 387.773,350.848C387.773,313.437 418.1,283.109 455.511,283.109C492.922,283.109 523.249,313.437 523.249,350.848Z" style="fill:rgb(243,126,148);fill-rule:nonzero;"/>
        </g>
        <g transform="matrix(1,0,0,1,-139.237,138.288)">
            <path d="M515.599,350.848C515.599,384.033 488.697,410.935 455.511,410.935C422.325,410.935 395.423,384.033 395.423,350.848C395.423,317.661 422.325,290.759 455.511,290.759C488.697,290.759 515.599,317.661 515.599,350.848Z" style="fill:rgb(239,238,239);fill-rule:nonzero;"/>
            <clipPath id="_clip1">
                <path d="M515.599,350.848C515.599,384.033 488.697,410.935 455.511,410.935C422.325,410.935 395.423,384.033 395.423,350.848C395.423,317.661 422.325,290.759 455.511,290.759C488.697,290.759 515.599,317.661 515.599,350.848Z" clip-rule="nonzero"/>
            </clipPath>
            <g clip-path="url(#_clip1)">
                <path d="M459.157,410.827L402.353,322.806C409.959,308.417 423.235,297.49 439.206,292.997L504.897,385.085C494.695,399.773 478.11,409.693 459.157,410.827Z" style="fill:rgb(250,250,250);fill-rule:nonzero;"/>
                <path d="M508.828,378.586L452.207,290.848C453.3,290.789 454.403,290.759 455.511,290.759C457.768,290.759 459.993,290.883 462.185,291.125L514.159,363.984C513.011,369.131 511.203,374.03 508.828,378.586Z" style="fill:rgb(250,250,250);fill-rule:nonzero;"/>
            </g>
        </g>
        <g transform="matrix(1,0,0,1,-139.237,138.288)">
            <path d="M455.81,304.299C454.975,304.299 454.299,303.622 454.299,302.787L454.299,299.239C454.299,298.404 454.975,297.728 455.81,297.728C456.645,297.728 457.322,298.404 457.322,299.239L457.322,302.787C457.322,303.622 456.645,304.299 455.81,304.299Z" style="fill:rgb(91,80,162);fill-rule:nonzero;"/>
        </g>
        <g transform="matrix(1,0,0,1,-139.237,138.288)">
            <path d="M455.81,404.695C454.975,404.695 454.299,404.019 454.299,403.184L454.299,399.635C454.299,398.8 454.975,398.123 455.81,398.123C456.645,398.123 457.322,398.8 457.322,399.635L457.322,403.184C457.322,404.019 456.645,404.695 455.81,404.695Z" style="fill:rgb(91,80,162);fill-rule:nonzero;"/>
        </g>
        <g transform="matrix(1,0,0,1,-139.237,138.288)">
            <path d="M421.57,318.482C421.183,318.482 420.797,318.335 420.501,318.039L417.991,315.53C417.401,314.94 417.401,313.982 417.991,313.392C418.582,312.801 419.538,312.801 420.129,313.392L422.638,315.901C423.229,316.491 423.229,317.449 422.638,318.039C422.343,318.335 421.957,318.482 421.57,318.482Z" style="fill:rgb(91,80,162);fill-rule:nonzero;"/>
        </g>
        <g transform="matrix(1,0,0,1,-139.237,138.288)">
            <path d="M492.561,389.474C492.175,389.474 491.788,389.326 491.492,389.03L488.982,386.521C488.392,385.931 488.392,384.973 488.982,384.383C489.573,383.792 490.529,383.792 491.12,384.383L493.63,386.893C494.22,387.482 494.22,388.44 493.63,389.03C493.335,389.326 492.948,389.474 492.561,389.474Z" style="fill:rgb(91,80,162);fill-rule:nonzero;"/>
        </g>
        <g transform="matrix(1,0,0,1,-139.237,138.288)">
            <path d="M419.06,389.474C418.674,389.474 418.287,389.326 417.991,389.03C417.401,388.44 417.401,387.482 417.991,386.893L420.501,384.383C421.092,383.792 422.048,383.792 422.638,384.383C423.229,384.973 423.229,385.931 422.638,386.521L420.129,389.03C419.834,389.326 419.447,389.474 419.06,389.474Z" style="fill:rgb(91,80,162);fill-rule:nonzero;"/>
        </g>
        <g transform="matrix(1,0,0,1,-139.237,138.288)">
            <path d="M490.051,318.482C489.665,318.482 489.278,318.335 488.982,318.039C488.392,317.449 488.392,316.491 488.982,315.901L491.492,313.392C492.083,312.801 493.039,312.801 493.63,313.392C494.22,313.982 494.22,314.94 493.63,315.53L491.12,318.039C490.825,318.335 490.438,318.482 490.051,318.482Z" style="fill:rgb(91,80,162);fill-rule:nonzero;"/>
        </g>
        <g transform="matrix(1,0,0,1,-139.237,138.288)">
            <path d="M407.386,352.723L403.839,352.723C403.004,352.723 402.327,352.046 402.327,351.211C402.327,350.376 403.004,349.7 403.839,349.7L407.386,349.7C408.221,349.7 408.898,350.376 408.898,351.211C408.898,352.046 408.221,352.723 407.386,352.723Z" style="fill:rgb(91,80,162);fill-rule:nonzero;"/>
        </g>
        <g transform="matrix(1,0,0,1,-139.237,138.288)">
            <path d="M507.783,352.723L504.235,352.723C503.4,352.723 502.723,352.046 502.723,351.211C502.723,350.376 503.4,349.7 504.235,349.7L507.783,349.7C508.618,349.7 509.295,350.376 509.295,351.211C509.295,352.046 508.618,352.723 507.783,352.723Z" style="fill:rgb(91,80,162);fill-rule:nonzero;"/>
        </g>
        <g transform="matrix(1,0,0,1,-139.237,138.288)">
            <path d="M459.423,350.641L452.199,350.641L452.199,319.327C452.199,317.333 453.816,315.716 455.81,315.716C457.805,315.716 459.423,317.333 459.423,319.327L459.423,350.641Z" style="fill:rgb(91,80,162);fill-rule:nonzero;"/>
        </g>
        <g transform="matrix(1,0,0,1,-139.237,138.288)">
            <path d="M464.095,350.641C464.095,355.216 460.385,358.925 455.81,358.925C451.235,358.925 447.526,355.216 447.526,350.641C447.526,346.065 451.235,342.356 455.81,342.356C460.385,342.356 464.095,346.065 464.095,350.641Z" style="fill:rgb(60,69,130);fill-rule:nonzero;"/>
        </g>
    </g>
</svg>
