<?xml version="1.0" encoding="UTF-8" standalone="no"?>
<!DOCTYPE svg PUBLIC "-//W3C//DTD SVG 1.1//EN" "http://www.w3.org/Graphics/SVG/1.1/DTD/svg11.dtd">
<svg width="100%" height="100%" viewBox="0 0 490 375" version="1.1" xmlns="http://www.w3.org/2000/svg" xmlns:xlink="http://www.w3.org/1999/xlink" xml:space="preserve" xmlns:serif="http://www.serif.com/" style="fill-rule:evenodd;clip-rule:evenodd;stroke-linejoin:round;stroke-miterlimit:2;">
    <g>
        <path d="M231.938,114.743L204.754,93.377L235.746,69.014C165.137,73.623 108.981,131.15 106.556,202.319L106.567,212.196C107.609,241.443 117.738,268.384 134.211,290.279L202.57,290.279C173.752,275.55 153.559,246.271 151.726,212.196L151.715,202.319C154.009,157.445 188.15,120.834 231.938,114.743Z" style="fill:rgb(250,74,86);fill-rule:nonzero;"/>
        <path d="M438.382,363.686L438.382,345.424L298.135,345.424C318.219,337.699 336.534,325.572 351.811,309.637C354.741,306.587 357.518,303.437 360.152,300.177L438.382,300.177L438.382,283.09L489.654,323.388L438.382,363.686Z" style="fill:rgb(250,74,86);fill-rule:nonzero;"/>
        <path d="M278.85,241.725C259.808,260.765 228.945,260.765 209.903,241.725C190.874,222.684 190.874,191.82 209.903,172.779C228.945,153.75 259.808,153.75 278.85,172.779C297.89,191.82 297.89,222.684 278.85,241.725ZM317.596,224.36C318.874,218.861 319.551,213.137 319.551,207.252C319.551,201.367 318.874,195.643 317.596,190.144L303.399,190.144C302.154,185.838 300.403,181.65 298.191,177.633L308.232,167.592C302.154,157.787 293.862,149.497 284.058,143.386L273.995,153.438C269.989,151.236 265.801,149.475 261.484,148.23L261.484,134.032C255.986,132.755 250.262,132.078 244.376,132.078C238.491,132.078 232.767,132.755 227.269,134.032L227.269,148.23C222.963,149.475 218.763,151.236 214.758,153.438L204.695,143.386C194.901,149.497 186.61,157.787 180.521,167.582L190.562,177.633C188.35,181.639 186.599,185.838 185.354,190.144L171.156,190.144C169.879,195.643 169.202,201.367 169.202,207.252C169.202,213.137 169.879,218.861 171.156,224.36L185.354,224.36C186.599,228.676 188.361,232.865 190.562,236.871L180.521,246.922C186.61,256.727 194.901,265.018 204.706,271.118L214.758,261.067C218.763,263.279 222.963,265.029 227.269,266.275L227.269,280.472C232.767,281.75 238.491,282.426 244.376,282.426C250.262,282.426 255.986,281.75 261.484,280.472L261.484,266.275C265.801,265.029 269.989,263.279 273.995,261.067L284.047,271.118C293.852,265.018 302.154,256.716 308.232,246.912L298.191,236.871C300.403,232.865 302.154,228.676 303.399,224.36L317.596,224.36Z" style="fill:rgb(208,216,237);fill-rule:nonzero;"/>
        <path d="M276.751,183.056L240.323,239.78L212.002,195.696L227.355,187.396L240.323,208.317L261.131,174.724L276.751,183.056Z" style="fill:rgb(27,178,106);fill-rule:nonzero;"/>
        <path d="M276.751,183.056L240.323,239.78L212.002,195.696L227.355,187.396L240.323,208.317L261.131,174.724L276.751,183.056Z" style="fill:rgb(27,178,106);fill-rule:nonzero;"/>
        <path d="M272.005,71L272.005,53.079L220.733,93.377L272.005,133.674L272.005,117.795C308.759,129.032 335.953,162.416 337.94,202.319L337.906,212.196C335.723,252.219 308.166,285.603 271.095,296.523C262.666,299.004 253.876,300.089 245.085,300.089L135.894,300.177L165.426,323.388L135.894,345.293L251.033,345.293C322.861,342.089 380.444,284.155 383.077,212.196L383.099,202.319C380.981,136.769 334.405,82.754 272.005,71Z" style="fill:rgb(86,105,239);fill-rule:nonzero;"/>
        <path d="M148.442,323.388L97.172,283.093L97.172,300.182L0,300.182L0,345.423L97.172,345.423L97.172,363.684L148.442,323.388Z" style="fill:rgb(255,145,52);fill-rule:nonzero;"/>
    </g>
</svg>
